<svg xmlns="http://www.w3.org/2000/svg" viewBox="0 0 512 512">
  <defs>
    <linearGradient id="bg" x1="0" y1="0" x2="1" y2="1">
      <stop offset="0%" stop-color="#2563eb" />
      <stop offset="100%" stop-color="#34d399" />
    </linearGradient>
  </defs>
  <rect width="512" height="512" rx="96" fill="url(#bg)" />
  <path d="M256 140c-64 0-116 52-116 116s52 116 116 116 116-52 116-116-52-116-116-116zm0 176c-33.1 0-60-26.9-60-60s26.9-60 60-60 60 26.9 60 60-26.9 60-60 60z" fill="#fff" />
  <path d="M256 88c-94 0-172 54.6-211 133.4 10.2 4.9 21.1 8.8 32.4 11.8C121.8 156.5 185.5 112 256 112c70.5 0 134.2 44.5 178.6 121.2 11.3-3 22.2-6.9 32.4-11.8C428 142.6 350 88 256 88z" fill="#fff" opacity="0.18" />
</svg>
